<svg width="512" height="512" viewBox="0 0 512 512" fill="none" xmlns="http://www.w3.org/2000/svg">
<g clip-path="url(#clip0_444_2)">
<path d="M83.054 3.49188C84.6155 3.48726 86.1769 3.4809 87.7383 3.47297C91.9854 3.45642 96.2321 3.46446 100.479 3.47692C105.076 3.48602 109.674 3.47197 114.271 3.461C123.259 3.44327 132.248 3.44703 141.237 3.45865C148.546 3.4677 155.855 3.4689 163.165 3.46455C164.207 3.46394 165.25 3.46333 166.324 3.4627C168.443 3.46142 170.562 3.46012 172.68 3.4588C192.519 3.44742 212.357 3.46049 232.195 3.48201C249.195 3.49988 266.195 3.49677 283.194 3.47833C302.964 3.4569 322.735 3.44851 342.505 3.46078C344.616 3.46205 346.726 3.46331 348.837 3.46455C350.394 3.46548 350.394 3.46548 351.983 3.46642C359.279 3.46987 366.574 3.46407 373.869 3.45463C382.767 3.44338 391.665 3.44652 400.563 3.46776C405.098 3.47823 409.632 3.48246 414.167 3.46916C418.327 3.45714 422.486 3.46395 426.646 3.48507C428.142 3.4895 429.638 3.48736 431.134 3.47757C444.289 3.39812 456.647 5.56093 468.376 11.8123C469.04 12.1556 469.704 12.4989 470.389 12.8526C477.873 16.8262 484.227 21.7931 490.001 27.9998C490.667 28.6611 491.334 29.3224 492.02 30.0037C504.479 42.8872 512.068 60.4269 512.161 78.412C512.167 79.149 512.172 79.8861 512.177 80.6455C512.192 83.1103 512.201 85.575 512.21 88.0399C512.219 89.8092 512.229 91.5786 512.239 93.3479C512.271 99.1538 512.291 104.96 512.309 110.765C512.313 111.754 512.316 112.743 512.319 113.761C512.35 123.088 512.377 132.415 512.394 141.743C512.416 153.662 512.458 165.58 512.527 177.499C512.574 185.887 512.599 194.274 512.606 202.661C512.611 207.668 512.626 212.674 512.666 217.681C512.703 222.392 512.711 227.103 512.698 231.815C512.698 233.54 512.708 235.265 512.729 236.989C512.914 252.707 512.914 252.707 507.582 259.398C502.649 264.395 499.036 265.276 492.126 265.625C486.303 265.445 482.58 264.378 477.868 260.996C470.831 253.473 471.432 245.731 471.487 235.974C471.481 234.337 471.474 232.7 471.465 231.064C471.45 227.547 471.447 224.03 471.454 220.514C471.465 214.944 471.447 209.374 471.426 203.805C471.396 194.986 471.384 186.168 471.38 177.35C471.374 161.58 471.345 145.811 471.295 130.042C471.279 124.515 471.273 118.988 471.277 113.461C471.277 110.009 471.27 106.557 471.26 103.104C471.258 101.515 471.258 99.9249 471.263 98.3351C471.304 82.3994 470.379 68.0447 459.02 55.8201C447.067 45.0463 432.987 44.8475 417.756 44.8661C416.306 44.8642 414.856 44.8619 413.405 44.8592C409.433 44.8531 405.461 44.8533 401.489 44.8544C397.2 44.8546 392.911 44.8491 388.622 44.8444C380.223 44.8361 371.825 44.8333 363.426 44.8328C356.598 44.8323 349.769 44.8302 342.941 44.8271C323.57 44.8183 304.199 44.8136 284.829 44.8144C283.263 44.8145 283.263 44.8145 281.666 44.8145C280.621 44.8146 279.576 44.8146 278.499 44.8146C261.565 44.815 244.632 44.8055 227.698 44.7914C210.3 44.777 192.902 44.7701 175.504 44.771C165.741 44.7713 155.977 44.7686 146.214 44.7578C137.901 44.7487 129.588 44.7465 121.275 44.7533C117.037 44.7566 112.798 44.7566 108.56 44.7479C104.674 44.7401 100.787 44.7415 96.9011 44.7502C95.5014 44.7518 94.1017 44.75 92.7021 44.7444C77.2182 44.6866 63.5904 46.0448 51.8211 56.9803C41.9696 67.9099 40.845 80.7407 40.8671 94.7897C40.8648 95.8538 40.8625 96.918 40.8602 98.0145C40.8539 101.569 40.8547 105.123 40.8555 108.677C40.8525 111.23 40.8491 113.783 40.8453 116.336C40.8374 122.545 40.8343 128.753 40.8337 134.962C40.8333 140.012 40.8312 145.061 40.828 150.111C40.8192 164.446 40.8146 178.781 40.8154 193.116C40.8154 194.274 40.8154 194.274 40.8155 195.455C40.8155 196.615 40.8155 196.615 40.8156 197.797C40.816 210.318 40.8064 222.838 40.7923 235.358C40.778 248.232 40.7711 261.105 40.7719 273.979C40.7723 281.199 40.7696 288.419 40.7588 295.639C40.7487 302.432 40.749 309.225 40.7563 316.018C40.7573 318.506 40.755 320.994 40.7489 323.482C40.7412 326.889 40.7459 330.295 40.7536 333.702C40.7484 334.677 40.7433 335.652 40.738 336.657C40.807 350.581 43.2727 362.731 52.9813 373.18C63.8264 382.955 76.5599 384.157 90.5125 384.126C92.0458 384.129 92.0458 384.129 93.6101 384.131C95.8177 384.135 98.0253 384.138 100.233 384.138C104.933 384.141 109.633 384.163 114.333 384.183C123.072 384.221 131.81 384.252 140.549 384.25C146.64 384.25 152.731 384.273 158.822 384.312C161.138 384.323 163.453 384.324 165.769 384.317C169.009 384.307 172.249 384.328 175.489 384.356C176.439 384.346 177.389 384.336 178.367 384.325C186.189 384.447 191.027 387.021 196.513 392.515C197.231 393.418 197.949 394.32 198.688 395.25C199.303 396.013 199.303 396.013 199.929 396.792C204.035 401.935 207.997 407.194 211.972 412.438C215.721 417.373 219.569 422.21 223.501 427C228.583 433.191 233.478 439.503 238.308 445.893C242.451 451.349 246.789 456.597 251.27 461.777C253.001 464 253.001 464 253.001 466C258.671 464.739 261.219 461.923 264.563 457.437C265.076 456.774 265.588 456.111 266.116 455.427C267.759 453.295 269.381 451.149 271.001 449C272.606 446.892 274.214 444.786 275.822 442.681C276.905 441.261 277.987 439.84 279.067 438.419C283.374 432.764 287.828 427.242 292.332 421.743C295.663 417.668 298.929 413.555 302.126 409.375C302.919 408.342 303.711 407.31 304.528 406.246C306.309 403.918 308.065 401.572 309.817 399.222C310.774 397.961 311.731 396.699 312.688 395.437C313.116 394.853 313.543 394.269 313.984 393.667C314.406 393.116 314.828 392.564 315.263 391.996C315.803 391.272 315.803 391.272 316.355 390.533C322.305 384.991 327.615 384.419 335.427 384.486C336.453 384.479 337.478 384.471 338.535 384.464C341.913 384.445 345.29 384.453 348.669 384.461C351.029 384.451 353.389 384.439 355.749 384.425C361.961 384.393 368.172 384.382 374.383 384.378C384.306 384.369 394.229 384.334 404.151 384.286C407.603 384.274 411.055 384.274 414.507 384.276C416.647 384.27 418.787 384.263 420.927 384.255C421.874 384.259 422.82 384.263 423.795 384.268C437.667 384.185 449.775 381.688 460.18 372.019C467.158 364.278 469.848 355.878 470.751 345.625C471.851 337.004 474.437 332.044 481.001 326.437C486.566 323.778 493.044 324.117 499.001 325C504.687 327.273 508.282 330.547 511.211 335.972C512.682 339.749 512.59 343.494 512.501 347.5C512.487 348.381 512.474 349.261 512.46 350.169C511.916 367.601 504.811 385.082 493.001 398C492.2 398.892 491.4 399.784 490.575 400.703C481.182 410.654 470.035 417.686 457.001 422C456.298 422.251 455.595 422.503 454.871 422.762C445.017 425.785 435.168 425.275 424.962 425.105C421.59 425.054 418.218 425.03 414.845 425.015C405.263 424.974 395.683 424.92 386.102 424.757C380.22 424.659 374.34 424.624 368.457 424.631C366.227 424.622 363.996 424.589 361.766 424.532C350.476 423.794 350.476 423.794 340.097 427.283C336.522 430.707 334.286 434.65 332.001 439C331.072 440.26 330.116 441.5 329.11 442.699C324.047 449.112 319.013 455.547 314.001 462C302.808 476.401 302.808 476.401 297.237 483.426C296.033 484.959 294.852 486.51 293.673 488.062C286.071 497.844 277.412 504.685 265.001 507C254.616 508.047 244.394 508.002 235.001 503C234.239 502.599 233.477 502.198 232.692 501.785C221.973 495.376 214.691 484.505 207.289 474.696C205.1 471.814 202.864 468.969 200.626 466.125C200.169 465.544 199.713 464.963 199.243 464.365C196.874 461.358 194.493 458.362 192.095 455.379C191.609 454.772 191.124 454.164 190.623 453.539C189.619 452.297 188.601 451.067 187.57 449.847C184.762 446.476 182.546 443.258 180.618 439.308C177.909 434.161 175.093 430.002 170.001 427C161.412 424.662 152.106 425.473 143.284 425.763C130.855 426.158 118.425 425.948 105.994 425.772C101.498 425.71 97.004 425.674 92.5084 425.661C89.64 425.649 86.7719 425.622 83.9036 425.591C81.9344 425.575 79.965 425.577 77.9956 425.58C65.9377 425.417 54.3382 422.901 43.6258 417.187C42.9572 416.84 42.2885 416.492 41.5997 416.134C36.2508 413.281 31.4814 410.105 27.0008 406C26.0972 405.176 25.1935 404.352 24.2625 403.504C8.97014 388.915 0.119878 369.984 -0.459926 348.837C-0.536078 343.296 -0.543683 337.756 -0.522106 332.215C-0.512963 328.734 -0.527073 325.254 -0.538028 321.773C-0.555721 314.974 -0.552015 308.175 -0.540378 301.376C-0.531307 295.846 -0.530135 290.315 -0.534473 284.785C-0.535086 283.994 -0.535695 283.204 -0.536327 282.39C-0.537606 280.784 -0.538903 279.179 -0.540218 277.573C-0.551597 262.552 -0.538553 247.531 -0.517017 232.509C-0.499148 219.648 -0.502256 206.788 -0.520694 193.927C-0.542149 178.956 -0.550498 163.985 -0.538242 149.014C-0.536968 147.414 -0.535714 145.815 -0.534473 144.215C-0.533856 143.428 -0.53324 142.642 -0.532604 141.831C-0.529165 136.313 -0.534947 130.796 -0.544391 125.279C-0.555664 118.545 -0.552462 111.812 -0.531269 105.079C-0.520828 101.65 -0.516514 98.2216 -0.529865 94.7928C-0.579653 77.9356 -0.284974 62.8223 7.81329 47.6248C8.32714 46.6284 8.32714 46.6284 8.85138 45.6119C11.6846 40.2673 15.041 35.5724 19.0008 30.9998C19.5976 30.207 20.1945 29.4143 20.8094 28.5975C36.2015 10.3519 60.0136 3.34104 83.054 3.49188Z" fill="#7B4916"/>
<path d="M265.766 182.106C270.631 185.11 273.904 188.606 276 194C276.584 197.952 276.567 201.862 276.549 205.851C276.565 207.616 276.565 207.616 276.58 209.416C276.608 213.296 276.606 217.175 276.602 221.055C276.606 223.075 276.613 225.095 276.62 227.115C276.642 233.463 276.643 239.81 276.631 246.158C276.619 252.688 276.644 259.217 276.686 265.747C276.722 271.37 276.734 276.993 276.727 282.616C276.724 285.967 276.731 289.317 276.757 292.669C276.781 296.41 276.768 300.149 276.745 303.89C276.767 305.537 276.767 305.537 276.791 307.216C276.689 314.659 274.945 319.386 270 325C264.633 329.585 259.409 329.727 252.453 329.512C247.272 328.744 243.575 326.822 240 323C235.528 316.807 235.417 311.652 235.451 304.149C235.44 302.973 235.43 301.796 235.42 300.584C235.392 296.704 235.394 292.825 235.398 288.946C235.394 286.926 235.387 284.906 235.38 282.886C235.357 276.538 235.356 270.19 235.369 263.843C235.381 257.313 235.356 250.784 235.313 244.254C235.278 238.631 235.266 233.008 235.273 227.384C235.276 224.033 235.269 220.683 235.243 217.332C235.219 213.591 235.232 209.851 235.255 206.11C235.24 205.013 235.225 203.915 235.209 202.785C235.31 195.341 237.055 190.615 242 185C248.473 179.471 257.916 178.968 265.766 182.106Z" fill="#7B4916"/>
<path d="M265.766 113.106C270.454 116.001 274.542 119.529 276 125C276.932 131.847 277.159 138.1 273.438 144.125C269.429 149.096 266.076 151.581 259.758 152.442C252.638 152.801 247.421 152.297 241.777 147.746C236.682 142.74 235.731 139.163 235.375 132.125C235.587 125.246 237.176 120.911 242 116C248.473 110.471 257.916 109.968 265.766 113.106Z" fill="#7B4916"/>
</g>
<defs>
<clipPath id="clip0_444_2">
<rect width="512" height="512" fill="white"/>
</clipPath>
</defs>
</svg>
